<svg xmlns="http://www.w3.org/2000/svg" viewBox="0 0 387.78 345.88"><defs><style>.cls-1{fill:#f0f0f0;}.cls-2{fill:#f5f5f5;}.cls-3{fill:#e6e6e6;}.cls-13,.cls-20,.cls-21,.cls-4,.cls-9{fill:#fff;}.cls-5{fill:#e0e0e0;}.cls-6{fill:#ebebeb;}.cls-7{fill:#fafafa;}.cls-11,.cls-12,.cls-15,.cls-8{fill:#407bff;}.cls-14,.cls-9{opacity:0.3;}.cls-10{fill:#263238;}.cls-11,.cls-13{opacity:0.4;}.cls-12{opacity:0.1;}.cls-15{opacity:0.6;}.cls-16{fill:#ff5652;}.cls-17{fill:#ff8b7b;}.cls-18,.cls-19{opacity:0.2;}.cls-20{opacity:0.5;}.cls-21{opacity:0.7;}</style></defs><g id="Background_Complete" data-name="Background Complete"><rect class="cls-1" x="381.06" y="248.05" width="45.65" height="125.47" transform="translate(751.66 539.89) rotate(180)"/><rect class="cls-1" x="181.74" y="373.53" width="236.21" height="8.87" transform="translate(543.57 674.24) rotate(180)"/><rect class="cls-2" x="116.86" y="166.37" width="208.09" height="125.47"/><rect class="cls-1" x="116.86" y="174.86" width="208.89" height="45.93"/><rect class="cls-1" x="116.86" y="229.16" width="208.89" height="45.93"/><rect class="cls-3" x="381.06" y="256.55" width="7.9" height="45.93" transform="translate(713.91 477.33) rotate(180)"/><rect class="cls-3" x="381.06" y="310.85" width="7.9" height="45.93" transform="translate(713.91 585.94) rotate(180)"/><rect class="cls-1" x="166.89" y="240.33" width="214.17" height="7.72" transform="translate(491.84 406.7) rotate(180)"/><rect class="cls-3" x="324.95" y="158.65" width="52.03" height="7.72"/><rect class="cls-1" x="328.14" y="81.68" width="107.43" height="135.04" transform="translate(707.61 216.73) rotate(180)"/><rect class="cls-2" x="304.43" y="81.68" width="127.03" height="135.04" transform="translate(679.77 216.73) rotate(180)"/><rect class="cls-4" x="311.06" y="96.33" width="113.76" height="105.75" transform="translate(162.63 435.46) rotate(-90)"/><path class="cls-3" d="M379.65,161.52l20.21-9.37v-5.89l-20.21-9.39v7.06l12.28,5.29-12.28,5.29Z" transform="translate(-56.11 -81.68)"/><path class="cls-3" d="M366.47,134.15h-3.69l6.54,30.11H373Z" transform="translate(-56.11 -81.68)"/><path class="cls-3" d="M356.23,154.51,344,149.22l12.28-5.29v-7.06L336,146.26v5.89l20.21,9.37Z" transform="translate(-56.11 -81.68)"/><rect class="cls-1" x="117.21" y="153.22" width="7.04" height="229.18" transform="translate(185.36 453.94) rotate(180)"/><path class="cls-1" d="M115.75,380.8l-.19-1a5.58,5.58,0,0,0,3.33-2.91c1.83-3.24,2.94-10.15-2.15-24.63-7.84-22.32-3.16-40.32,6.17-76.2,1.62-6.25,3.46-13.33,5.37-21,7.17-28.67.54-46.45-4.79-60.74-4.13-11.09-7.4-19.85-3.22-30l.93.38c-4,9.78-.83,18.38,3.23,29.27,5.38,14.41,12.07,32.36,4.82,61.32-1.91,7.66-3.75,14.74-5.37,21C114.6,312,109.94,329.92,117.69,352c5.23,14.89,4,22.09,2,25.5A6.48,6.48,0,0,1,115.75,380.8Z" transform="translate(-56.11 -81.68)"/><polygon class="cls-1" points="51.88 300.71 77.37 300.71 70.28 296.54 58.97 296.54 51.88 300.71"/><polygon class="cls-2" points="14.2 100.72 115.04 100.72 103.95 15.98 25.3 15.98 14.2 100.72"/><polygon class="cls-1" points="163.77 114.69 217.61 114.69 210.52 158.65 170.85 158.65 163.77 114.69"/><path class="cls-5" d="M241.51,210.68c14.68-5.31,25.92-13.29,13.34-29.44s-32.07-16.07-45.21-8.92c-16.74,9.1-13.38,35.45-13.38,35.45S226.83,216,241.51,210.68Z" transform="translate(-56.11 -81.68)"/><path class="cls-3" d="M255.78,196c-11.23-7.65-19.19-16.5-6.16-25.84s29.1-4.55,38.76,4.12c12.31,11.06,5.2,30.47,5.2,30.47S267,203.61,255.78,196Z" transform="translate(-56.11 -81.68)"/><path class="cls-1" d="M236,176.59c13.14-.79,24.16-4.22,17.94-18.45s-22-18.22-34.31-15.78c-15.73,3.11-19.44,22.79-19.44,22.79S222.87,177.39,236,176.59Z" transform="translate(-56.11 -81.68)"/><path class="cls-6" d="M252.5,168.2c-10.93-3.52-19.5-8.79-11.17-19.48s22.5-10.63,32.4-5.91c12.62,6,11.5,23.46,11.5,23.46S263.43,171.71,252.5,168.2Z" transform="translate(-56.11 -81.68)"/><path class="cls-2" d="M232,150c10.91,3.6,20.94,4.38,20.49-9.16S240.58,119,229.8,116.94c-13.75-2.56-23.11,12.19-23.11,12.19S221.11,146.37,232,150Z" transform="translate(-56.11 -81.68)"/><path class="cls-7" d="M259.69,144.15c-7.81.54-14.56-.64-12-9.51s11.56-12.4,19-11.91c9.5.63,13.19,12,13.19,12S267.49,143.62,259.69,144.15Z" transform="translate(-56.11 -81.68)"/></g><g id="Shadow"><ellipse id="_Path_" data-name="&lt;Path&gt;" class="cls-2" cx="193.89" cy="334.55" rx="193.89" ry="11.32"/></g><g id="Desk"><rect class="cls-8" x="23.4" y="169.4" width="339.75" height="12.19"/><rect class="cls-9" x="23.4" y="169.4" width="90.93" height="12.19"/><polygon class="cls-8" points="115.78 181.59 107.87 181.59 112.01 334.37 115.78 334.37 119.55 334.37 123.69 181.59 115.78 181.59"/><polygon class="cls-9" points="112.01 334.37 115.78 334.37 115.78 184.88 108 186.3 112.01 334.37"/><polygon class="cls-8" points="40.81 181.59 32.89 181.59 37.04 334.37 40.81 334.37 44.58 334.37 48.72 181.59 40.81 181.59"/><polygon class="cls-9" points="37.04 334.37 40.81 334.37 40.81 184.88 33.02 186.3 37.04 334.37"/><polygon class="cls-8" points="345.74 181.59 337.83 181.59 341.97 334.37 345.74 334.37 349.51 334.37 353.66 181.59 345.74 181.59"/><polygon class="cls-9" points="341.97 334.37 345.74 334.37 345.74 184.88 337.96 186.3 341.97 334.37"/><polygon class="cls-8" points="270.77 181.59 262.86 181.59 267 334.37 270.77 334.37 274.54 334.37 278.68 181.59 270.77 181.59"/><polygon class="cls-9" points="267 334.37 270.77 334.37 270.77 184.88 262.98 186.3 267 334.37"/><path class="cls-10" d="M240.78,185.83H160a4.16,4.16,0,0,0-4.17,5.28l10.76,51.35a6.87,6.87,0,0,0,6.38,5.27h80.84a4.16,4.16,0,0,0,4.17-5.27l-10.77-51.35A6.87,6.87,0,0,0,240.78,185.83Z" transform="translate(-56.11 -81.68)"/><path class="cls-4" d="M173.67,244.8a4.79,4.79,0,0,1-4.32-3.6l-10.76-51.35a2.35,2.35,0,0,1,.37-2,2.17,2.17,0,0,1,1.73-.73h80.84a4.79,4.79,0,0,1,4.32,3.6l10.76,51.35a2.35,2.35,0,0,1-.37,2,2.14,2.14,0,0,1-1.73.73Z" transform="translate(-56.11 -81.68)"/><path class="cls-11" d="M234.66,240.69,224.46,192a2,2,0,0,1,1.94-2.39h13.12a2,2,0,0,1,1.94,1.58l10.2,48.65a2,2,0,0,1-1.94,2.39H236.6A2,2,0,0,1,234.66,240.69Z" transform="translate(-56.11 -81.68)"/><polygon class="cls-8" points="109.21 112.19 108.77 110.08 124.97 110.08 125.41 112.19 109.21 112.19"/><polygon class="cls-6" points="116.69 117.42 116.25 115.31 144.64 115.31 145.09 117.42 116.69 117.42"/><polygon class="cls-6" points="118.18 122.66 117.74 120.55 149.57 120.55 150.01 122.66 118.18 122.66"/><polygon class="cls-6" points="119.68 127.89 119.24 125.78 144.86 125.78 145.31 127.89 119.68 127.89"/><polygon class="cls-8" points="114.13 136.39 113.69 134.28 123.94 134.28 124.38 136.39 114.13 136.39"/><polygon class="cls-6" points="121.61 141.62 121.17 139.51 133.65 139.51 134.1 141.62 121.61 141.62"/><polygon class="cls-6" points="137.09 141.62 136.64 139.51 149.13 139.51 149.57 141.62 137.09 141.62"/><polygon class="cls-6" points="123.11 146.85 122.66 144.74 164.87 144.74 165.31 146.85 123.11 146.85"/><polygon class="cls-6" points="124.6 152.09 124.16 149.98 156.34 149.98 156.78 152.09 124.6 152.09"/><path class="cls-10" d="M278.52,247.42H172.16c-2.9,0-4.78,1.65-4.17,3.67H284.9C284.3,249.07,281.42,247.42,278.52,247.42Z" transform="translate(-56.11 -81.68)"/><path class="cls-12" d="M137.21,172.85,127,124.19a2,2,0,0,1,1.94-2.38h82.6a2,2,0,0,1,1.94,1.57L223.69,172a2,2,0,0,1-1.94,2.39h-82.6A2,2,0,0,1,137.21,172.85Z" transform="translate(-56.11 -81.68)"/><polygon class="cls-8" points="110.46 41.73 93.12 41.73 92.73 39.86 110.07 39.86 110.46 41.73"/><polygon class="cls-11" points="107.64 44.7 100.68 44.7 100.29 42.84 107.25 42.84 107.64 44.7"/><polygon class="cls-11" points="119.22 44.7 108.5 44.7 108.11 42.84 118.83 42.84 119.22 44.7"/><polygon class="cls-11" points="123.89 47.68 101.3 47.68 100.91 45.81 123.5 45.81 123.89 47.68"/><polygon class="cls-11" points="121.02 50.65 101.92 50.65 101.53 48.78 120.63 48.78 121.02 50.65"/><polygon class="cls-11" points="133.69 82.27 121.53 82.27 121.92 84.13 134.08 84.13 133.69 82.27"/><polygon class="cls-8" points="118.53 78.18 100.72 78.18 100.33 76.31 118.14 76.31 118.53 78.18"/><polygon class="cls-11" points="125.69 85.24 109.13 85.24 109.52 87.11 126.08 87.11 125.69 85.24"/><polygon class="cls-11" points="120.67 82.27 108.51 82.27 108.9 84.13 121.06 84.13 120.67 82.27"/><polygon class="cls-11" points="132.21 79.29 107.89 79.29 108.28 81.16 132.59 81.16 132.21 79.29"/><polygon class="cls-8" points="109.85 27.85 90.23 27.85 89.84 25.98 109.46 25.98 109.85 27.85"/><polygon class="cls-11" points="119.53 34.91 97.9 34.91 98.29 36.77 119.92 36.77 119.53 34.91"/><polygon class="cls-11" points="115.21 31.93 97.28 31.93 97.67 33.8 115.59 33.8 115.21 31.93"/><polygon class="cls-11" points="116.4 28.96 96.66 28.96 97.05 30.82 116.79 30.82 116.4 28.96"/><polygon class="cls-8" points="109.62 55.49 95.99 55.49 95.6 53.63 109.23 53.63 109.62 55.49"/><polygon class="cls-11" points="131.04 62.55 104.4 62.55 104.79 64.42 131.43 64.42 131.04 62.55"/><polygon class="cls-11" points="114.82 59.58 103.78 59.58 104.17 61.44 115.21 61.44 114.82 59.58"/><polygon class="cls-11" points="126.8 59.58 115.76 59.58 116.15 61.44 127.19 61.44 126.8 59.58"/><polygon class="cls-11" points="127.47 56.6 103.16 56.6 103.55 58.47 127.86 58.47 127.47 56.6"/><polygon class="cls-11" points="127.43 71.47 106.26 71.47 106.65 73.34 127.82 73.34 127.43 71.47"/><polygon class="cls-11" points="111.8 68.5 105.64 68.5 106.03 70.36 112.18 70.36 111.8 68.5"/><polygon class="cls-11" points="121.43 68.5 112.64 68.5 113.03 70.36 121.82 70.36 121.43 68.5"/><polygon class="cls-11" points="129.34 65.53 105.02 65.53 105.41 67.39 129.72 67.39 129.34 65.53"/><polygon class="cls-11" points="148.49 65.03 139.78 65.03 139.39 63.16 148.1 63.16 148.49 65.03"/><polygon class="cls-11" points="162.99 65.03 149.57 65.03 149.18 63.16 162.6 63.16 162.99 65.03"/><polygon class="cls-11" points="168.69 68 140.4 68 140.01 66.14 168.3 66.14 168.69 68"/><polygon class="cls-11" points="164.93 70.98 141.02 70.98 140.63 69.11 164.54 69.11 164.93 70.98"/><polygon class="cls-11" points="175.64 53.19 148.55 53.19 148.94 55.06 176.03 55.06 175.64 53.19"/><polygon class="cls-11" points="170.37 50.22 147.93 50.22 148.32 52.08 170.76 52.08 170.37 50.22"/><polygon class="cls-8" points="166.32 47.24 141.6 47.24 141.99 49.11 166.71 49.11 166.32 47.24"/><polygon class="cls-11" points="176.86 82.88 143.5 82.88 143.89 84.74 177.25 84.74 176.86 82.88"/><polygon class="cls-11" points="156.7 79.9 142.88 79.9 143.27 81.77 157.09 81.77 156.7 79.9"/><polygon class="cls-11" points="171.7 79.9 157.88 79.9 158.27 81.77 172.09 81.77 171.7 79.9"/><polygon class="cls-11" points="172.7 76.93 142.26 76.93 142.65 78.79 173.09 78.79 172.7 76.93"/><polygon class="cls-11" points="171.86 91.8 145.36 91.8 145.75 93.67 172.25 93.67 171.86 91.8"/><polygon class="cls-11" points="152.45 88.83 144.74 88.83 145.13 90.69 152.84 90.69 152.45 88.83"/><polygon class="cls-11" points="164.51 88.83 153.51 88.83 153.9 90.69 164.9 90.69 164.51 88.83"/><polygon class="cls-11" points="174.56 85.85 144.12 85.85 144.51 87.72 174.95 87.72 174.56 85.85"/><polygon class="cls-11" points="93.49 94.11 72.75 94.11 73.14 95.97 93.88 95.97 93.49 94.11"/><polygon class="cls-11" points="87.35 91.13 72.13 91.13 72.52 93 87.74 93 87.35 91.13"/><polygon class="cls-11" points="103.65 91.13 88.43 91.13 88.82 93 104.04 93 103.65 91.13"/><polygon class="cls-11" points="101.95 88.16 71.51 88.16 71.9 90.02 102.34 90.02 101.95 88.16"/><polygon class="cls-8" points="334.84 149.98 322 149.98 323.5 169.4 333.34 169.4 334.84 149.98"/><polygon class="cls-13" points="334.84 149.98 322 149.98 323.5 169.4 333.34 169.4 334.84 149.98"/><polygon class="cls-10" points="55.02 136.49 73.48 136.49 67.18 169.4 48.72 169.4 55.02 136.49"/><polygon class="cls-8" points="78.53 127.67 52.46 127.67 59.76 169.4 85.83 169.4 78.53 127.67"/><polygon class="cls-8" points="50.92 127.67 52.46 127.67 59.76 169.4 58.22 169.4 50.92 127.67"/><polygon class="cls-14" points="50.92 127.67 52.46 127.67 59.76 169.4 58.22 169.4 50.92 127.67"/><polygon class="cls-4" points="63.51 164.94 57.77 132.13 74.78 132.13 80.52 164.94 63.51 164.94"/><polygon class="cls-15" points="79.71 164.94 73.98 132.13 74.78 132.13 80.52 164.94 79.71 164.94"/></g><g id="Character"><path class="cls-10" d="M263.77,156c.37.8.25,1.65-.28,1.89s-1.25-.21-1.62-1-.24-1.65.28-1.89S263.4,155.16,263.77,156Z" transform="translate(-56.11 -81.68)"/><path class="cls-16" d="M264.09,157.58s.32,5.46-.66,8.62c2,.67,4.16-1,4.16-1Z" transform="translate(-56.11 -81.68)"/><path class="cls-10" d="M263.87,149.39a.53.53,0,0,1-.3.12,4.12,4.12,0,0,0-3.29,1.79.52.52,0,1,1-.9-.52,5.14,5.14,0,0,1,4.13-2.31.52.52,0,0,1,.36.92Z" transform="translate(-56.11 -81.68)"/><path class="cls-17" d="M293.22,154.76c3.09,10.7,6.54,19,10.75,23.74,0,0,.08,8.41-14.25,12.41-15.76,4.4-9.72-5.72-9.72-5.72,8-4.45,7.24-11.17,1.22-13.73Z" transform="translate(-56.11 -81.68)"/><path class="cls-10" d="M307.31,176.45c-.28-3.91-.65-8.37-3.06-8.49-2.66-.12-18.06,6.76-21.35,11.61s3.14,9.6,3.14,9.6Z" transform="translate(-56.11 -81.68)"/><path class="cls-17" d="M275.79,237l-13.3-.44.24,11.14s11.6-1.2,12.11-4.25Z" transform="translate(-56.11 -81.68)"/><polygon class="cls-17" points="199.35 160.35 197.95 166.05 206.61 166.02 206.38 154.88 199.35 160.35"/><path class="cls-8" d="M329.17,190.71l-.28,2.86c-.09.92-.21,1.82-.33,2.73-.23,1.81-.52,3.62-.83,5.42-.6,3.61-1.38,7.2-2.28,10.81a107.83,107.83,0,0,1-3.32,10.87c-.69,1.83-1.41,3.66-2.27,5.52a45.73,45.73,0,0,1-3,5.65c-.27.47-.61,1-.94,1.44s-.65,1-1,1.46-.72,1-1.18,1.47l-.65.74a10.06,10.06,0,0,1-.74.78,22.81,22.81,0,0,1-6.93,4.65,41,41,0,0,1-12.43,3.15c-1.95.23-3.88.32-5.77.37s-3.78,0-5.64-.1-3.7-.26-5.53-.48-3.61-.51-5.55-.9l.32-10.45a160.33,160.33,0,0,0,18.9-4.5,41.44,41.44,0,0,0,4.06-1.56,18.63,18.63,0,0,0,3.22-1.75,4.48,4.48,0,0,0,1.46-1.42l.29-.46a6.53,6.53,0,0,0,.37-.61,7.56,7.56,0,0,0,.39-.71c.13-.26.27-.5.4-.79a52.59,52.59,0,0,0,2.89-7.94c.82-2.94,1.59-6,2.21-9.17s1.22-6.37,1.77-9.6l.76-4.86.69-4.73Z" transform="translate(-56.11 -81.68)"/><path class="cls-18" d="M329.17,190.71l-.28,2.86c-.09.92-.21,1.82-.33,2.73-.23,1.81-.52,3.62-.83,5.42-.6,3.61-1.38,7.2-2.28,10.81a107.83,107.83,0,0,1-3.32,10.87c-.69,1.83-1.41,3.66-2.27,5.52a45.73,45.73,0,0,1-3,5.65c-.27.47-.61,1-.94,1.44s-.65,1-1,1.46-.72,1-1.18,1.47l-.65.74a10.06,10.06,0,0,1-.74.78,22.81,22.81,0,0,1-6.93,4.65,41,41,0,0,1-12.43,3.15c-1.95.23-3.88.32-5.77.37s-3.78,0-5.64-.1-3.7-.26-5.53-.48-3.61-.51-5.55-.9l.32-10.45a160.33,160.33,0,0,0,18.9-4.5,41.44,41.44,0,0,0,4.06-1.56,18.63,18.63,0,0,0,3.22-1.75,4.48,4.48,0,0,0,1.46-1.42l.29-.46a6.53,6.53,0,0,0,.37-.61,7.56,7.56,0,0,0,.39-.71c.13-.26.27-.5.4-.79a52.59,52.59,0,0,0,2.89-7.94c.82-2.94,1.59-6,2.21-9.17s1.22-6.37,1.77-9.6l.76-4.86.69-4.73Z" transform="translate(-56.11 -81.68)"/><path class="cls-8" d="M270.12,204a326.55,326.55,0,0,1,8.33,65.14H337c.32-7.23-.9-48-6.79-77.45a20.4,20.4,0,0,0-24.4-16l-.28.07c-7.31,1.66-17.8,4.34-24,6.69l-.25.1A18.33,18.33,0,0,0,270.12,204Z" transform="translate(-56.11 -81.68)"/><path class="cls-18" d="M273.93,222.7c.46,2.81.93,5.79,1.36,8.91,4.79-5,6.31-20.32,6.31-20.32Z" transform="translate(-56.11 -81.68)"/><path class="cls-17" d="M225.29,237.73,212,236.49l-.44,11.13A12.48,12.48,0,0,0,224,244.11Z" transform="translate(-56.11 -81.68)"/><polygon class="cls-17" points="149.57 158.09 145.31 165.74 155.49 165.94 155.93 154.8 149.57 158.09"/><path class="cls-8" d="M292.09,198.87c-.92,1.75-1.74,3.3-2.66,4.9s-1.8,3.16-2.75,4.71c-1.88,3.12-3.83,6.18-5.89,9.21a153.64,153.64,0,0,1-13.71,17.64,75.7,75.7,0,0,1-8.69,8.27c-.39.33-.85.65-1.28,1s-.81.63-1.45,1-1.18.74-1.76,1.06-1.18.61-1.77.87a31.42,31.42,0,0,1-6.88,2.09,43.44,43.44,0,0,1-12.52.28,52,52,0,0,1-5.8-1q-1.43-.33-2.82-.75c-1-.28-1.81-.59-2.88-1l1.65-10.32c6.28-.85,13.07-1.94,17.75-4.06a12.83,12.83,0,0,0,2.91-1.67,6.81,6.81,0,0,0,1-.84c.07-.09.38-.36.61-.58s.5-.43.75-.69a71.37,71.37,0,0,0,6-6.75,195.49,195.49,0,0,0,11.27-16.16c1.8-2.83,3.55-5.71,5.3-8.6l2.58-4.34,2.49-4.27Z" transform="translate(-56.11 -81.68)"/><polygon class="cls-17" points="219.91 325.92 208.97 325.92 203.46 300.57 214.41 300.57 219.91 325.92"/><path class="cls-10" d="M264.47,405.26h12.3a1,1,0,0,1,.93.74l2.16,9.74a1.6,1.6,0,0,1-1.6,1.94c-4.29-.07-6.38-.32-11.79-.32-3.33,0-7.6.34-12.19.34s-5.2-4.54-3.32-4.95c8.44-1.85,9-4.39,11.73-6.82A2.64,2.64,0,0,1,264.47,405.26Z" transform="translate(-56.11 -81.68)"/><g class="cls-19"><polygon points="214.41 300.57 203.46 300.57 206.51 314.61 217.26 313.64 214.41 300.57"/></g><path class="cls-17" d="M289.71,141.9c4,10.12,6.78,15.85,4.14,23.2-4,11.05-18.19,12.17-25.09,3.43-6.2-7.87-11.62-23.1-3.79-31.47A14.81,14.81,0,0,1,289.71,141.9Z" transform="translate(-56.11 -81.68)"/><path class="cls-10" d="M270.49,157.06c-1.64,2.2-2.9,3.87-2.9,3.87s-3.37-8.37-2.08-12.21c-1.64-3.25-4.95,1.54-6.2-4.79s4.16-13.13,6.2-14.54a7.41,7.41,0,0,1,.28,2.27,28,28,0,0,1,19.6-6.19,6.77,6.77,0,0,0-1.1,2.94s11.87,2,14.57,8.72a12.83,12.83,0,0,0-3-1,14.49,14.49,0,0,1,2.4,10.72,110.21,110.21,0,0,0-1.34,16.53c.11,2.84-7.68,8.27-12.43,2.47S270.49,157.06,270.49,157.06Z" transform="translate(-56.11 -81.68)"/><path class="cls-17" d="M275.44,154.88a11.07,11.07,0,0,1-.5,7.1c-1.27,3-3.88,2.28-5.17-.34-1.17-2.35-1.92-6.71.15-8.8S274.66,152.05,275.44,154.88Z" transform="translate(-56.11 -81.68)"/><path class="cls-8" d="M296,269.1s-50.84,18.44-52.33,42.83c-2.76,44.93,15.61,80.5,15.61,80.5l16.84-1.8s-3-14.46-5.23-55.16c-2.81-51.15,84,1.2,66.12-66.37Z" transform="translate(-56.11 -81.68)"/><path class="cls-20" d="M296,269.1s-50.84,18.44-52.33,42.83c-2.76,44.93,15.61,80.5,15.61,80.5l16.84-1.8s-3-14.46-5.23-55.16c-2.81-51.15,84,1.2,66.12-66.37Z" transform="translate(-56.11 -81.68)"/><path class="cls-8" d="M254.62,386.23c-.08,0,2.68,7.48,2.68,7.48l21-2.06-1.05-6.8Z" transform="translate(-56.11 -81.68)"/><polygon class="cls-17" points="172.62 327.16 161.67 327.16 158.47 301.81 169.42 301.81 172.62 327.16"/><path class="cls-10" d="M217.7,405.25h12a.94.94,0,0,1,.93.74l2.18,9.73a1.59,1.59,0,0,1-1.57,2c-4.31-.07-10.55-.31-16-.3-6.34,0-7.55.35-15,.36-4.5,0-5.75-4.53-3.87-5,8.56-1.88,11.3-2.09,18.69-6.66A5,5,0,0,1,217.7,405.25Z" transform="translate(-56.11 -81.68)"/><polygon class="cls-18" points="158.48 301.82 160.22 315.62 171.07 314.88 169.43 301.82 158.48 301.82"/><path class="cls-8" d="M278.45,269.1s-83.3,7.39-82.4,49.23c.93,43.52,17.19,72.87,17.19,72.87H229.5s-3.08-22.58-2.53-65.42c.16-12.83,26.1-17.07,51.42-18.57,21.88-1.3,42.36-13.77,50.86-34L331,269.1Z" transform="translate(-56.11 -81.68)"/><path class="cls-20" d="M278.45,269.1s-83.3,7.39-82.4,49.23c.93,43.52,17.19,72.87,17.19,72.87H229.5s-3.08-22.58-2.53-65.42c.16-12.83,26.1-17.07,51.42-18.57,21.88-1.3,42.36-13.77,50.86-34L331,269.1Z" transform="translate(-56.11 -81.68)"/><path class="cls-8" d="M209.43,386.83c-.07,0,2.79,7.52,2.79,7.52l19.64-1.41-1.15-6.8Z" transform="translate(-56.11 -81.68)"/><path class="cls-10" d="M300.32,222.08l-10.57,40.73a127.1,127.1,0,0,0-4.06,31.95v18.93c0,4.78,3.52,8.66,7.87,8.66h54.18c4.35,0,7.87-3.88,7.87-8.66V294.76a127.11,127.11,0,0,1,4.07-31.95l9.33-36c1.44-5.53-2.34-11-7.57-11H307.88A8,8,0,0,0,300.32,222.08Z" transform="translate(-56.11 -81.68)"/><path class="cls-10" d="M232.93,302.63l1.77,10.1c.94,5.31,5.61,9.62,10.44,9.62h60.23c4.83,0,8-4.31,7.06-9.62l-1.77-10.1c-1.07-6.05-6.38-10.95-11.88-10.95H241C235.46,291.68,231.87,296.58,232.93,302.63Z" transform="translate(-56.11 -81.68)"/><polygon class="cls-8" points="255.06 250.81 223.51 250.81 220.43 240.66 258.14 240.66 255.06 250.81"/><rect class="cls-8" x="233.65" y="250.81" width="11.27" height="75.41"/><polygon class="cls-21" points="244.92 326.22 233.65 326.22 233.65 252.62 244.92 253.76 244.92 326.22"/><polygon class="cls-21" points="242.17 326.22 239.48 326.22 239.48 253.21 242.17 253.49 242.17 326.22"/><path class="cls-8" d="M321.31,419.56H269.47a1.44,1.44,0,0,1-.84-2.6l8.22-6a23.08,23.08,0,0,1,13.62-4.46h9.85a23.07,23.07,0,0,1,13.61,4.46l8.23,6A1.44,1.44,0,0,1,321.31,419.56Z" transform="translate(-56.11 -81.68)"/></g></svg>